<?xml version="1.0" encoding="UTF-8"?>
<svg version="1.1" xmlns="http://www.w3.org/2000/svg" width="1024" height="1024">
<path d="M0 0 C337.92 0 675.84 0 1024 0 C1024 337.92 1024 675.84 1024 1024 C686.08 1024 348.16 1024 0 1024 C0 686.08 0 348.16 0 0 Z " fill="#FCFCFC" transform="translate(0,0)"/>
<path d="M0 0 C1.60575105 -0.00302339 3.21150067 -0.00691381 4.81724775 -0.01159257 C9.21459314 -0.02185758 13.61185687 -0.01969453 18.00920892 -0.01541197 C22.75785716 -0.01294196 27.50648589 -0.02196246 32.25512695 -0.02944946 C41.5534486 -0.0421919 50.85174136 -0.04399063 60.15007026 -0.0416492 C67.71122946 -0.03986498 75.2723799 -0.04161793 82.83353806 -0.04587364 C83.91037869 -0.04646883 84.98721932 -0.04706402 86.09669148 -0.04767724 C88.28446171 -0.04888903 90.47223193 -0.05010316 92.66000216 -0.05131962 C113.17357728 -0.06219391 133.68713596 -0.06003349 154.20071201 -0.05393478 C172.94942037 -0.04876862 191.69807672 -0.06001332 210.4467748 -0.07903299 C229.71271849 -0.09842699 248.9786376 -0.10666447 268.24459112 -0.10290974 C279.05489969 -0.1009997 289.86516404 -0.10346586 300.67546463 -0.11762428 C309.88101814 -0.12955913 319.0865002 -0.13091958 328.29205473 -0.11883412 C332.98453944 -0.11295952 337.67689361 -0.11180647 342.36936951 -0.12383652 C346.67396228 -0.13474337 350.97831629 -0.13153534 355.28289811 -0.11757483 C356.83133785 -0.11494099 358.37979659 -0.11725264 359.9282176 -0.1253107 C373.01745381 -0.18864177 386.03128879 0.90325433 397.90023804 6.88569641 C398.60519409 7.22979553 399.31015015 7.57389465 400.03646851 7.92842102 C406.70264472 11.29786182 412.51978674 15.41147424 418.21273804 20.26069641 C418.8637146 20.79952454 419.51469116 21.33835266 420.18539429 21.89350891 C432.95314031 33.46882307 440.93095279 52.1467051 442.58570397 69.07652438 C442.72609875 73.10363849 442.75214935 77.11326391 442.72740173 81.14187622 C442.73274118 82.68467563 442.73981483 84.22746982 442.74844879 85.77025431 C442.76691829 89.96591584 442.76082596 94.16122064 442.75029576 98.35689604 C442.74325862 102.89897181 442.75933577 107.44097757 442.77229309 111.98303223 C442.79386402 120.86446781 442.79382385 129.74577492 442.78566755 138.62722806 C442.77935076 145.85117533 442.78051994 153.07508532 442.78693962 160.29903221 C442.78784128 161.32978795 442.78874293 162.3605437 442.78967191 163.42253446 C442.79152324 165.5169663 442.7933858 167.61139812 442.79525947 169.70582994 C442.81181422 189.318215 442.80313891 208.93052798 442.78627389 228.54290869 C442.77158275 246.45506938 442.78620125 264.36706223 442.81504405 282.27920131 C442.84449245 300.70576358 442.85539424 319.13224854 442.84586185 337.5588333 C442.84483938 339.64619329 442.84384477 341.7335533 442.84287834 343.82091331 C442.84240195 344.84773292 442.84192556 345.87455253 442.84143474 346.93248788 C442.83927759 354.13927502 442.84903744 361.34598838 442.86364937 368.55275917 C442.88123409 377.34787058 442.88096783 386.14276825 442.85829771 394.93787149 C442.84721042 399.41820106 442.84386658 403.89815492 442.86259842 408.37846756 C442.97191352 436.64643354 440.8069492 461.8601866 420.21273804 483.26069641 C406.03443298 496.90481101 387.23544375 505.36473597 367.42836952 505.39491749 C366.76777426 505.39726972 366.107179 505.39962195 365.42656571 505.40204546 C363.21535 505.40869676 361.00419359 505.40827841 358.79296875 505.40786743 C357.19052046 505.41116848 355.58807299 505.41489456 353.98562658 505.41900891 C349.58345745 505.42900981 345.18130195 505.43274263 340.77912307 505.43539822 C336.03040601 505.439307 331.28169969 505.44888499 326.5329895 505.45761108 C315.06479163 505.4773602 303.59659289 505.48744013 292.12838227 505.49633887 C286.72409035 505.50072467 281.31979941 505.50609076 275.91550827 505.51132774 C257.94363674 505.52833913 239.97176581 505.54283219 221.99988747 505.55007648 C217.33760197 505.55198629 212.67531648 505.55390664 208.01303101 505.55586243 C206.85428122 505.55634617 205.69553144 505.55682991 204.50166802 505.55732831 C185.74050165 505.56562446 166.97939911 505.59095479 148.2182606 505.6234431 C128.94450061 505.65654621 109.67077302 505.67452822 90.39698446 505.67772073 C79.58042845 505.6798829 68.76396553 505.68858864 57.94743729 505.7141819 C48.73341465 505.73593339 39.51950771 505.74391749 30.30546232 505.73421512 C25.60877998 505.72968319 20.91233613 505.73149185 16.2156868 505.75097656 C11.90593546 505.76870081 7.59659496 505.7675362 3.2868387 505.75207927 C1.7376134 505.74971715 0.18835896 505.75395326 -1.36082201 505.76590792 C-14.70923178 505.86243453 -28.00218842 504.03141761 -39.97476196 497.69819641 C-40.62783325 497.35941467 -41.28090454 497.02063293 -41.95376587 496.67158508 C-61.50849234 486.0578593 -73.81786856 468.19364088 -80.08599433 447.12923041 C-82.22261504 439.43674472 -82.48519198 432.03258824 -82.41545105 424.08758545 C-82.4205124 422.53750815 -82.42775336 420.98743675 -82.43694919 419.43737847 C-82.45567282 415.23088487 -82.44375197 411.02498198 -82.42622626 406.81850445 C-82.41274766 402.26150624 -82.42832658 397.7045886 -82.44004822 393.14759827 C-82.45835108 384.24166875 -82.44996207 375.33595979 -82.43195999 366.43003731 C-82.41788991 359.18752483 -82.41405064 351.94507191 -82.41740227 344.70254707 C-82.41787971 343.6687095 -82.41835715 342.63487193 -82.41884906 341.56970595 C-82.41987547 339.46898872 -82.42093083 337.3682715 -82.42201483 335.26755429 C-82.43056691 316.72494121 -82.41395499 298.18243409 -82.38418579 279.6398468 C-82.35534789 261.67691091 -82.3482688 243.71412762 -82.36367798 225.75117493 C-82.38046553 206.15478476 -82.38444864 186.5584669 -82.36696762 166.96207482 C-82.36512337 164.86972655 -82.36328865 162.77737827 -82.36146355 160.68502998 C-82.36055146 159.65575482 -82.35963937 158.62647965 -82.35869964 157.56601433 C-82.35311044 150.33774339 -82.35638626 143.10950794 -82.3630085 135.88123894 C-82.37076591 127.06454014 -82.36390262 118.24799114 -82.33883346 109.43132239 C-82.32639458 104.93913133 -82.32012323 100.44717282 -82.33137512 95.95497322 C-82.34150541 91.83251658 -82.33277363 87.71052109 -82.30979394 83.58811999 C-82.3046862 82.10720351 -82.30610173 80.62624482 -82.31518859 79.14534741 C-82.44045644 56.85333896 -75.14743562 37.9657971 -59.51773071 21.93257141 C-42.5980507 5.8602421 -22.80824681 -0.06092169 0 0 Z " fill="#1F1F1F" transform="translate(331.7872619628906,109.73930358886719)"/>
<path d="M0 0 C0.68853058 0.00248749 1.37706116 0.00497498 2.0864563 0.00753784 C22.87028013 0.12385789 41.4091559 3.98835018 57.875 17.3125 C58.70386719 17.95574219 59.53273438 18.59898437 60.38671875 19.26171875 C73.13946675 29.82716541 80.8185095 44.9029779 82.875 61.3125 C83.00003316 65.98373883 82.91909565 70.63836155 82.875 75.3125 C76.935 75.3125 70.995 75.3125 64.875 75.3125 C64.50375 71.1978125 64.50375 71.1978125 64.125 67 C62.9152698 55.47027688 59.80511086 46.67957292 52.875 37.3125 C52.2975 36.44625 51.72 35.58 51.125 34.6875 C39.90423252 22.84335655 23.46732217 17.43828105 7.5 16.87890625 C4.95838983 16.86190989 2.41662697 16.86073577 -0.125 16.875 C-1.38828125 16.85501953 -2.6515625 16.83503906 -3.953125 16.81445312 C-20.49254199 16.82296106 -34.87499731 22.50089031 -46.8984375 33.89453125 C-50.39956646 37.69663445 -52.91507255 41.65195993 -55.125 46.3125 C-55.46402344 47.02277344 -55.80304688 47.73304688 -56.15234375 48.46484375 C-58.37318127 54.28814583 -58.42899175 60.21757051 -58.5 66.375 C-58.51401855 67.21401855 -58.52803711 68.05303711 -58.54248047 68.91748047 C-58.45986804 79.73123518 -54.34306 90.00695622 -47 98 C-37.05503887 107.3193562 -23.02434448 111.36207242 -10.0625 114.3125 C-8.96341309 114.5710376 -7.86432617 114.8295752 -6.73193359 115.09594727 C-1.95826358 116.21585654 2.8196509 117.30867409 7.61328125 118.33984375 C18.95146583 120.81279727 30.45660835 124.10330417 40.875 129.3125 C39.29719077 133.02295247 36.96796752 135.61156384 34.25 138.5625 C33.43273437 139.45453125 32.61546875 140.3465625 31.7734375 141.265625 C31.14695312 141.94109375 30.52046875 142.6165625 29.875 143.3125 C28.84503906 142.92578125 27.81507813 142.5390625 26.75390625 142.140625 C15.84874972 138.12313998 4.97930369 135.23033665 -6.38037109 132.83740234 C-25.78174337 128.75006949 -43.93084384 123.78606356 -59.125 110.3125 C-59.76179688 109.76980469 -60.39859375 109.22710937 -61.0546875 108.66796875 C-71.70644594 98.93936271 -76.58305292 85.08929208 -77.46875 70.96875 C-78.08371408 53.40285285 -72.97713762 37.21099328 -61.484375 23.69140625 C-44.58398051 6.65110783 -23.58911566 -0.13542535 0 0 Z " fill="#B0AFAF" transform="translate(454.125,232.6875)"/>
<path d="M0 0 C7.26 0 14.52 0 22 0 C18.58868577 3.9798666 15.19967513 7.92992599 11.6875 11.8125 C10.91535156 12.66714844 10.14320313 13.52179688 9.34765625 14.40234375 C8.18556641 15.68818359 8.18556641 15.68818359 7 17 C5.54151898 18.62486745 4.08318514 20.24986701 2.625 21.875 C-7.53291389 33.15961491 -17.85600903 44.29680459 -28.1796875 55.4296875 C-34.35822714 62.07944078 -34.35822714 62.07944078 -40.375 68.875 C-44.36571974 73.49171499 -48.56687388 77.91209188 -52.73901367 82.36401367 C-56.8093186 86.71155635 -60.82387916 91.1025958 -64.79296875 95.54296875 C-67.34185781 98.38058152 -69.91887225 101.19176495 -72.5 104 C-75.85298191 107.64922466 -79.18998409 111.31169656 -82.5 115 C-85.79066353 118.666069 -89.10585949 122.3086818 -92.4375 125.9375 C-96.04714833 129.87002393 -99.65410385 133.80488176 -103.25 137.75 C-103.99765625 138.56984375 -104.7453125 139.3896875 -105.515625 140.234375 C-107.46529202 142.40475904 -109.38542975 144.59319294 -111.296875 146.796875 C-115.73533795 151.8813676 -120.38924527 156.75420623 -125.0390625 161.64453125 C-128.91248856 165.73480934 -132.68706558 169.88685336 -136.37841797 174.14208984 C-138.72343581 176.82886879 -141.13634665 179.44909749 -143.5625 182.0625 C-144.06499268 182.60559814 -144.56748535 183.14869629 -145.08520508 183.70825195 C-148.50533603 187.40069467 -151.94104325 191.07845237 -155.37915039 194.75415039 C-159.83037153 199.51305686 -164.27567208 204.27231405 -168.625 209.125 C-169.31335938 209.88683594 -170.00171875 210.64867187 -170.7109375 211.43359375 C-172.50981797 213.45042732 -174.27800844 215.48568188 -176.0390625 217.53515625 C-177.10897485 218.75295584 -178.17928447 219.97040652 -179.25 221.1875 C-179.9937085 222.07236084 -179.9937085 222.07236084 -180.75244141 222.97509766 C-182.203125 224.60546875 -182.203125 224.60546875 -185 227 C-188.85943653 227.03579076 -191.92685881 225.19803342 -195.3125 223.4375 C-196.19550781 222.98246094 -197.07851563 222.52742187 -197.98828125 222.05859375 C-198.98408203 221.53458984 -198.98408203 221.53458984 -200 221 C-198.64827153 216.91620659 -196.93063758 214.62316481 -193.8125 211.6875 C-190.26169167 208.32324903 -187.03844579 204.79230647 -183.84057617 201.09887695 C-180.89320037 197.73787553 -177.82069586 194.49800638 -174.75 191.25 C-167.57465816 183.62819244 -160.49094392 175.92975371 -153.44140625 168.19140625 C-147.27761822 161.44146304 -141.03817023 154.76795892 -134.74536133 148.13793945 C-130.98434757 144.16203755 -127.33290978 140.11576179 -123.74609375 135.98242188 C-120.78585764 132.62152741 -117.70263582 129.37806784 -114.625 126.125 C-109.80607718 121.00956429 -105.04287635 115.85689534 -100.36328125 110.61328125 C-96.72149744 106.58625089 -93.00322355 102.63135819 -89.29272461 98.66772461 C-84.78086003 93.84532438 -80.31350316 88.98519577 -75.859375 84.109375 C-72.51761611 80.4633877 -69.13135738 76.85921405 -65.75 73.25 C-61.69559689 68.91947898 -57.69261807 64.56530037 -53.8203125 60.0703125 C-49.81976447 55.52033298 -45.6594004 51.11113831 -41.54199219 46.66699219 C-37.34328618 42.12792243 -33.17204711 37.56355886 -29 33 C-28.12085938 32.03835938 -27.24171875 31.07671875 -26.3359375 30.0859375 C-22.14959737 25.49487566 -18.00342791 20.87805474 -13.93359375 16.18359375 C-10.89285784 12.74971219 -7.77069845 9.38997161 -4.64282227 6.03540039 C-2.01792894 3.23723206 -2.01792894 3.23723206 0 0 Z " fill="#C0BFBE" transform="translate(630,235)"/>
<path d="M0 0 C6.44696327 5.69513082 9.23121298 15.67147393 10 24 C11.12917954 43.25068983 8.6363636 61.28847551 -4.3125 76.4375 C-17.27895561 89.77380417 -34.01722296 96.67750362 -52 100 C-52.93730957 100.1743457 -53.87461914 100.34869141 -54.84033203 100.52832031 C-81.49636634 104.50757068 -107.42223704 99.54924449 -129.5625 84.2265625 C-143.75831643 73.62298011 -151.75582397 57.16709818 -155 40 C-155.4727298 35.30171046 -155.24840182 30.71963452 -155 26 C-149.06 26 -143.12 26 -137 26 C-136.86464844 27.42570312 -136.72929687 28.85140625 -136.58984375 30.3203125 C-134.89262052 46.16475724 -131.93173925 58.57499364 -119.73046875 69.81640625 C-101.45617039 84.43061624 -80.44828585 85.13523142 -58 84 C-53.75405583 83.44580174 -49.99891104 82.50788501 -46 81 C-44.99066406 80.63648438 -43.98132813 80.27296875 -42.94140625 79.8984375 C-30.44622113 75.06259806 -18.8818282 67.45325005 -13 55 C-7.6004564 41.3423309 -6.97326487 26.85344266 -12 13 C-11.20335937 12.22076172 -11.20335937 12.22076172 -10.390625 11.42578125 C-6.68949647 7.77192991 -3.12841559 4.17122079 0 0 Z " fill="#B5B5B4" transform="translate(529,390)"/>
<path d="M0 0 C3.9699458 1.54991035 5.96712943 4.04427153 8.625 7.3125 C9.0588501 7.84375488 9.4927002 8.37500977 9.93969727 8.92236328 C13.86978255 13.76495438 17.66852824 18.70846332 21.44921875 23.66796875 C24.01739258 27.03333215 26.62904922 30.36315851 29.25 33.6875 C33.52124802 39.10861113 37.76633335 44.54949171 42 50 C47.53439981 57.12337349 53.09308215 64.22696763 58.67333984 71.31445312 C60.95086206 74.20808827 63.22524007 77.10419323 65.5 80 C66.4166523 81.16667796 67.33331895 82.33334464 68.25 83.5 C71 87 71 87 73.75 90.5 C74.20407227 91.07790283 74.65814453 91.65580566 75.12597656 92.2512207 C76.03941679 93.41379575 76.95282842 94.57639328 77.86621094 95.73901367 C80.20700377 98.71847036 82.54834581 101.69749287 84.890625 104.67578125 C87.1842762 107.59232264 89.4756597 110.51063455 91.76611328 113.4296875 C92.92371921 114.90292085 94.08478577 116.37343311 95.24609375 117.84375 C95.88675781 118.6584375 96.52742187 119.473125 97.1875 120.3125 C97.73792969 121.00988281 98.28835938 121.70726562 98.85546875 122.42578125 C100 124 100 124 100 125 C81.86655518 127.35986502 81.86655518 127.35986502 75.95751953 123.75341797 C72.36254384 120.37482087 69.82432921 116.27250346 67.29150391 112.06933594 C65.27793918 108.84306475 62.89331328 105.94877534 60.5 103 C59.5893115 101.84128309 58.68046441 100.68111663 57.7734375 99.51953125 C55.41031888 96.51154456 53.01914774 93.52704236 50.62109375 90.546875 C45.26428689 83.88932914 40.03297101 77.14864606 34.86254883 70.34545898 C30.75953476 64.95967761 26.55837255 59.66110511 22.31298828 54.38720703 C17.86621868 48.85564378 13.53351926 43.24228652 9.2265625 37.6015625 C7.96887431 35.95935817 6.70423226 34.32273619 5.4375 32.6875 C0.16702112 25.87846516 -4.98028649 18.99675151 -10 12 C-9.61328125 11.55269531 -9.2265625 11.10539062 -8.828125 10.64453125 C-5.81609925 7.1478974 -2.85678969 3.62592537 0 0 Z " fill="#B3B2B1" transform="translate(554,362)"/>
<path d="M0 0 C34.83333333 0 34.83333333 0 43 7 C47.08284574 12.15727883 47.69042287 16.5262236 47.4453125 23.0625 C46.64754713 28.32495229 44.49402292 32.09617104 40.25439453 35.33251953 C38.51767184 36.5782866 36.76880579 37.80033295 35 39 C35.32274902 39.46374023 35.64549805 39.92748047 35.97802734 40.40527344 C37.44638788 42.5183187 38.91072461 44.63412205 40.375 46.75 C41.13683594 47.84441406 41.13683594 47.84441406 41.9140625 48.9609375 C42.64882813 50.02441406 42.64882813 50.02441406 43.3984375 51.109375 C43.84880371 51.75874023 44.29916992 52.40810547 44.76318359 53.07714844 C45.99724774 54.99572113 47.01913906 56.94219378 48 59 C44.52833316 59.54762045 41.4515267 59.7493058 38 59 C35.41823493 56.42575537 34.04219315 53.30805012 32.4375 50.0625 C29.17715563 43.99886717 29.17715563 43.99886717 23.80712891 40.04931641 C18.64055973 39.02201395 14.39349764 39.56504051 9 40 C9 46.27 9 52.54 9 59 C6.03 59 3.06 59 0 59 C0 39.53 0 20.06 0 0 Z " fill="#2F2F2E" transform="translate(357,681)"/>
<path d="M0 0 C7.6725 -0.12375 7.6725 -0.12375 15.5 -0.25 C17.09779297 -0.28641602 18.69558594 -0.32283203 20.34179688 -0.36035156 C27.83681722 -0.41887691 33.64096266 -0.39695519 40 4 C44.61113332 8.55766029 46.1616987 11.80400484 46.25 18.25 C46.1946748 23.27352831 46.10281381 26.86291492 43 31 C40.55892822 33.37597654 38.06688584 35.46655708 35 37 C36.561927 41.71271078 39.1922319 45.25660494 42.125 49.1875 C47 55.73450413 47 55.73450413 47 58 C43.77885811 58.73817835 41.20122516 58.8983283 38 58 C34.71665986 54.71665986 32.40761755 50.95110148 30 47 C29.17229454 45.80857045 28.3404245 44.61999201 27.5 43.4375 C26 41 26 41 26 39 C20.06 39 14.12 39 8 39 C8 45.27 8 51.54 8 58 C5.36 58 2.72 58 0 58 C0 38.86 0 19.72 0 0 Z " fill="#2B2A2A" transform="translate(674,682)"/>
<path d="M0 0 C2.97 0 5.94 0 9 0 C16.18338091 15.27398271 23.36478088 30.54938446 30.4375 45.875 C30.90325439 46.87724609 31.36900879 47.87949219 31.84887695 48.91210938 C32.2687085 49.82541016 32.68854004 50.73871094 33.12109375 51.6796875 C33.4864624 52.47101074 33.85183105 53.26233398 34.22827148 54.07763672 C35 56 35 56 35 58 C32.03 58 29.06 58 26 58 C23.03 51.07 23.03 51.07 20 44 C9.44 43.67 -1.12 43.34 -12 43 C-12.99 45.97 -13.98 48.94 -15 52 C-15.95723017 54.02081924 -16.93988057 56.03120677 -18 58 C-20.64 58 -23.28 58 -26 58 C-24.01213079 51.57128829 -21.54996107 45.52049682 -18.69140625 39.43359375 C-18.07941628 38.11609886 -18.07941628 38.11609886 -17.45506287 36.77198792 C-16.16206319 33.99169339 -14.86226651 31.21463637 -13.5625 28.4375 C-12.69424201 26.57115862 -11.82639988 24.70462371 -10.95898438 22.83789062 C-10.12016411 21.03628488 -9.28098346 19.23484687 -8.44140625 17.43359375 C-8.05586075 16.60629257 -7.67031525 15.77899139 -7.27308655 14.92662048 C-4.92481486 9.91068969 -2.49681476 4.94372862 0 0 Z " fill="#282828" transform="translate(625,682)"/>
<path d="M0 0 C13.86 0 27.72 0 42 0 C42 2.64 42 5.28 42 8 C30.78 8 19.56 8 8 8 C8 13.94 8 19.88 8 26 C17.9 26 27.8 26 38 26 C38 28.31 38 30.62 38 33 C28.1 33 18.2 33 8 33 C8 39.27 8 45.54 8 52 C19.55 52 31.1 52 43 52 C43 54.31 43 56.62 43 59 C28.81 59 14.62 59 0 59 C0 39.53 0 20.06 0 0 Z " fill="#2B2B2A" transform="translate(483,681)"/>
<path d="M0 0 C13.86 0 27.72 0 42 0 C42 2.64 42 5.28 42 8 C30.45 8 18.9 8 7 8 C7 13.94 7 19.88 7 26 C16.9 26 26.8 26 37 26 C37 28.31 37 30.62 37 33 C27.1 33 17.2 33 7 33 C7 39.27 7 45.54 7 52 C18.88 52 30.76 52 43 52 C43 54.31 43 56.62 43 59 C28.81 59 14.62 59 0 59 C0 39.53 0 20.06 0 0 Z " fill="#2A2929" transform="translate(423,681)"/>
<path d="M0 0 C2.64 0 5.28 0 8 0 C8.33 10.56 8.66 21.12 9 32 C10.753125 30.081875 12.50625 28.16375 14.3125 26.1875 C19.27023043 20.78793085 24.36218199 15.57329486 29.61328125 10.45703125 C31.67861923 8.33084862 33.34451675 6.21382673 35.0625 3.8125 C36.90298864 1.53224858 37.63785109 1.05917108 40.58203125 0.578125 C43.0974019 0.564053 45.50552036 0.68942249 48 1 C44.22427612 5.49005002 40.33667419 9.86183006 36.375 14.1875 C35.90795654 14.69829102 35.44091309 15.20908203 34.9597168 15.73535156 C32.90846739 17.96777584 30.87825007 20.10727478 28.6015625 22.11328125 C26.80679834 23.8223672 26.80679834 23.8223672 26.97265625 25.84765625 C28.45704952 28.95754482 30.40269648 31.67325302 32.4375 34.4375 C33.09878906 35.35088135 33.09878906 35.35088135 33.7734375 36.28271484 C37.7195319 41.70021059 41.82071378 46.99400705 45.96875 52.2578125 C47.62773089 54.49743671 48.81061816 56.50881712 50 59 C46.50214016 59.61876627 43.48412456 59.76757174 40 59 C36.70151786 56.2728554 34.52567662 52.93298728 32.1875 49.375 C30.93197845 47.5696244 29.67548996 45.76492081 28.41796875 43.9609375 C27.83450684 43.10467773 27.25104492 42.24841797 26.64990234 41.36621094 C23.03676772 35.91420639 23.03676772 35.91420639 18 32 C17.74347656 32.60328125 17.48695313 33.2065625 17.22265625 33.828125 C15.87813894 36.21646884 14.61439518 37.13209878 12.4375 38.75 C8.43541652 42.51129422 8.2779656 46.21374509 8.0625 51.4375 C7.99135809 53.96317615 7.97876069 56.47252236 8 59 C5.36 59 2.72 59 0 59 C0 39.53 0 20.06 0 0 Z " fill="#292928" transform="translate(543,681)"/>
<path d="M0 0 C1.51652558 0.80286649 3.02419923 1.62452497 4.5 2.5 C3.625 7.25 3.625 7.25 2.5 9.5 C-0.62804313 9.01124326 -3.29865569 8.17976165 -6.1875 6.9375 C-11.95421839 4.72037153 -17.72268244 4.53644085 -23.5625 6.5625 C-25.77485002 8.48602458 -25.77485002 8.48602458 -26.625 11.875 C-26.84154461 15.53264764 -26.84154461 15.53264764 -24.6484375 18.00390625 C-20.82803433 21.55864778 -15.90147494 22.62981303 -11 24.0625 C2.1702876 27.96648484 2.1702876 27.96648484 5.78515625 33.44921875 C7.37064619 37.99775547 7.51677712 43.09877188 5.625 47.56640625 C2.43252979 52.4286224 -1.83397019 55.38457511 -7.42578125 57.0859375 C-17.24453817 59.04599067 -26.38183637 56.76924212 -34.625 51.3125 C-35.92571607 50.38759636 -37.2209557 49.454649 -38.5 48.5 C-37.51 45.53 -37.51 45.53 -36.5 42.5 C-32.38377865 42.5 -31.59872741 42.77404795 -28.375 44.9375 C-23.74113883 48.00634013 -21.31324696 48.63682588 -15.625 48.625 C-14.39007813 48.62757813 -13.15515625 48.63015625 -11.8828125 48.6328125 C-8.08271667 48.53428266 -8.08271667 48.53428266 -4.5 47.5 C-3.3154869 43.94646071 -3.23358106 41.22986522 -3.5 37.5 C-5.55899518 34.82125652 -7.53534164 33.94238342 -10.73828125 33.03515625 C-11.55876953 32.79216797 -12.37925781 32.54917969 -13.22460938 32.29882812 C-14.93800058 31.81131984 -16.65154031 31.32433324 -18.36523438 30.83789062 C-24.63783371 28.97916103 -30.20602495 26.6979698 -34.5 21.5 C-36.36080151 15.91759548 -36.43825348 10.44868031 -33.875 5.125 C-25.29545605 -4.35765384 -11.2625021 -5.19130956 0 0 Z " fill="#2B2B2B" transform="translate(333.5,683.5)"/>
<path d="M0 0 C3.3 -0.0825 6.6 -0.165 10 -0.25 C11.02351563 -0.28641602 12.04703125 -0.32283203 13.1015625 -0.36035156 C19.0535993 -0.43175758 24.22717938 0.15124052 29 4 C31.38835472 7.80374854 31.69172389 11.61345828 31 16 C28.90577099 20.03887023 27.24012345 22.36403944 23 24 C20.43457031 24.22705078 20.43457031 24.22705078 17.578125 24.1953125 C16.65418945 24.19031738 15.73025391 24.18532227 14.77832031 24.18017578 C13.03180176 24.15286377 13.03180176 24.15286377 11.25 24.125 C7.5375 24.08375 3.825 24.0425 0 24 C0 16.08 0 8.16 0 0 Z " fill="#F7F7F7" transform="translate(365,689)"/>
<path d="M0 0 C3.34125 -0.061875 6.6825 -0.12375 10.125 -0.1875 C11.68758545 -0.22846802 11.68758545 -0.22846802 13.28173828 -0.27026367 C19.96510937 -0.33003993 24.36370281 0.50245529 29.375 5.25 C31.48540577 8.82145592 31.5030724 10.9035533 31 15 C29.73884942 18.6433239 28.77771323 20.46342837 25.59375 22.66015625 C20.5510585 24.54020319 15.95212603 24.3205016 10.625 24.1875 C5.365625 24.0946875 5.365625 24.0946875 0 24 C0 16.08 0 8.16 0 0 Z " fill="#F9F9F9" transform="translate(682,689)"/>
<path d="M0 0 C0.66 0 1.32 0 2 0 C3.84255516 3.93324939 5.67244719 7.87226022 7.5 11.8125 C8.02464844 12.93205078 8.54929687 14.05160156 9.08984375 15.20507812 C9.83427734 16.81479492 9.83427734 16.81479492 10.59375 18.45703125 C11.05458984 19.44678955 11.51542969 20.43654785 11.99023438 21.45629883 C13 24 13 24 13 27 C5.08 27 -2.84 27 -11 27 C-7.625 16.875 -7.625 16.875 -5.95703125 13.18359375 C-5.43012695 12.00893555 -5.43012695 12.00893555 -4.89257812 10.81054688 C-4.53615234 10.02744141 -4.17972656 9.24433594 -3.8125 8.4375 C-3.44447266 7.61958984 -3.07644531 6.80167969 -2.69726562 5.95898438 C-1.80204987 3.97090782 -0.9015835 1.98519692 0 0 Z " fill="#EFF0EF" transform="translate(628,691)"/>
<path d="M0 0 C5.94 0 11.88 0 18 0 C18 2.97 18 5.94 18 9 C17.67 9 17.34 9 17 9 C17 6.36 17 3.72 17 1 C9.9292391 1.60279279 9.9292391 1.60279279 3 3 C1.55792059 5.88415883 1.90605113 8.41721528 1.9375 11.625 C1.94652344 12.81351562 1.95554687 14.00203125 1.96484375 15.2265625 C1.97644531 16.14179688 1.98804688 17.05703125 2 18 C-1.41306555 12.67884268 -0.11199598 6.04778317 0 0 Z " fill="#868686" transform="translate(374,416)"/>
<path d="M0 0 C0.99 0.495 0.99 0.495 2 1 C2.40729228 3.32156597 2.74438677 5.6568787 3 8 C4.95764383 8.19456705 6.91615321 8.38044247 8.875 8.5625 C9.96554687 8.66691406 11.05609375 8.77132813 12.1796875 8.87890625 C14.95152023 9.22639404 14.95152023 9.22639404 17 8 C17 8.99 17 9.98 17 11 C11.39 11 5.78 11 0 11 C0 7.37 0 3.74 0 0 Z " fill="#C9CAC9" transform="translate(519,297)"/>
<path d="M0 0 C0 3 0 3 -1.0625 4.9375 C-2.19407719 7.42696982 -1.90064221 8.4782018 -1 11 C-2.9375 10.1875 -2.9375 10.1875 -5 9 C-5.33 8.01 -5.66 7.02 -6 6 C-4.02 4.02 -2.04 2.04 0 0 Z " fill="#D1D0CD" transform="translate(550,367)"/>
<path d="M0 0 C-1.40844718 3.21524305 -3.10344786 5.32183868 -5.625 7.75 C-6.57246094 8.67039062 -6.57246094 8.67039062 -7.5390625 9.609375 C-8.02117188 10.06828125 -8.50328125 10.5271875 -9 11 C-9.33 10.34 -9.66 9.68 -10 9 C-9.195625 8.236875 -8.39125 7.47375 -7.5625 6.6875 C-4.83200976 4.20569102 -4.83200976 4.20569102 -4 1 C-2 0 -2 0 0 0 Z " fill="#E6E5E3" transform="translate(537,360)"/>
<path d="M0 0 C1.32 0.66 2.64 1.32 4 2 C3.34 2.66 2.68 3.32 2 4 C1.34 4 0.68 4 0 4 C-0.66 5.32 -1.32 6.64 -2 8 C-2.33 7.01 -2.66 6.02 -3 5 C-1.5625 2.3125 -1.5625 2.3125 0 0 Z " fill="#3C3D3C" transform="translate(298,725)"/>
<path d="M0 0 C2.475 0.495 2.475 0.495 5 1 C3.63016497 4.16115776 3.0109362 4.9927092 0 7 C0 4.69 0 2.38 0 0 Z " fill="#C8C7C5" transform="translate(490,361)"/>
<path d="M0 0 C3.18518519 6.37037037 3.18518519 6.37037037 2.0625 10.1875 C1.711875 11.115625 1.36125 12.04375 1 13 C0.67 13 0.34 13 0 13 C0 8.71 0 4.42 0 0 Z " fill="#D0D0CF" transform="translate(521,417)"/>
</svg>
